<svg xmlns="http://www.w3.org/2000/svg" xmlns:xlink="http://www.w3.org/1999/xlink" width="576" height="576" viewBox="0 0 576 576"><defs><linearGradient id="linear-gradient" x1="-8.451" y1="7.977" x2="17.759" y2="-13.918" gradientUnits="objectBoundingBox"><stop offset="0" stop-color="#009bbc"/><stop offset="1" stop-color="#003383"/></linearGradient><linearGradient id="linear-gradient-2" x1="-4.712" y1="9.207" x2="8.394" y2="-12.688" xlink:href="#linear-gradient"/><linearGradient id="linear-gradient-3" x1="-11.396" y1="10.437" x2="14.814" y2="-11.458" xlink:href="#linear-gradient"/><linearGradient id="linear-gradient-4" x1="0" y1=".5" x2="1" y2=".5" xlink:href="#linear-gradient"/><linearGradient id="linear-gradient-7" x1="0" y1=".5" x2="1" y2=".5" xlink:href="#linear-gradient"/><linearGradient id="linear-gradient-8" x1="0" y1=".5" x2="1" y2=".5" xlink:href="#linear-gradient"/><linearGradient id="linear-gradient-9" x1="0" y1=".5" x2="1" y2=".5" xlink:href="#linear-gradient"/><linearGradient id="linear-gradient-11" x1="0" y1=".5" x2="1" y2=".5" xlink:href="#linear-gradient"/><linearGradient id="linear-gradient-12" x1="0" y1=".5" x2="1" y2=".5" xlink:href="#linear-gradient"/><linearGradient id="linear-gradient-13" x1="0" y1=".5" x2="1" y2=".5" xlink:href="#linear-gradient"/><clipPath id="clip-Mesa_de_trabajo_2"><rect width="576" height="576"/></clipPath></defs><g id="Mesa_de_trabajo_2" data-name="Mesa de trabajo &#8211; 2" clip-path="url(#clip-Mesa_de_trabajo_2)"><g id="Grupo_1415" data-name="Grupo 1415" transform="translate(271.116 -1050.938)"><g id="Grupo_1414" data-name="Grupo 1414" transform="translate(-254.116 1066.938)"><circle id="Elipse_41" data-name="Elipse 41" cx="226.5" cy="226.5" r="226.5" transform="translate(0 91)" fill="rgba(67,192,119,0.5)"/><ellipse id="Elipse_42" data-name="Elipse 42" cx="107" cy="107.5" rx="107" ry="107.5" transform="translate(327)" fill="rgba(43,211,211,0.5)"/></g><g id="Grupo_1413" data-name="Grupo 1413" transform="translate(-253.775 1230.124)"><g id="Grupo_1366" data-name="Grupo 1366" transform="translate(0 0)"><rect id="Rect&#225;ngulo_164" data-name="Rect&#225;ngulo 164" width="159.724" height="33.189" transform="translate(118.032 270.212)" fill="#fff"/><rect id="Rect&#225;ngulo_165" data-name="Rect&#225;ngulo 165" width="391.809" height="261.089" rx="3.217" transform="translate(4.064 8.126)" fill="#fff"/><rect id="Rect&#225;ngulo_166" data-name="Rect&#225;ngulo 166" width="13.137" height="13.137" transform="translate(158.481 234.291)" fill="url(#linear-gradient)"/><rect id="Rect&#225;ngulo_167" data-name="Rect&#225;ngulo 167" width="26.275" height="13.137" transform="translate(184.756 234.291)" fill="url(#linear-gradient-2)"/><rect id="Rect&#225;ngulo_168" data-name="Rect&#225;ngulo 168" width="13.137" height="13.137" transform="translate(224.168 234.291)" fill="url(#linear-gradient-3)"/><path id="Trazado_1272" data-name="Trazado 1272" d="M748.992 23.121H408.537A29.772 29.772.0 00378.8 52.862V265.489a29.77 29.77.0 0029.741 29.733h84.228v28.71H464.633a4.062 4.062.0 100 8.124h217.7a4.062 4.062.0 100-8.124H660.613v-28.71h88.38a29.768 29.768.0 0029.733-29.733V52.862A29.77 29.77.0 00748.992 23.121zM408.537 31.245H748.992A21.638 21.638.0 01770.6 52.862V232.733H386.92V52.862a21.645 21.645.0 0121.617-21.617zM652.489 323.932h-151.6v-28.71h151.6zm96.5-36.834H408.537a21.638 21.638.0 01-21.618-21.609V240.857H770.6v24.632A21.631 21.631.0 01748.992 287.1z" transform="translate(-378.796 -23.121)" fill="url(#linear-gradient-4)"/></g><g id="Grupo_1367" data-name="Grupo 1367" transform="translate(116.325 83.073)"><path id="Trazado_1273" data-name="Trazado 1273" d="M408.714 104.317c-3.038-5.151-6.028-10.325-9.163-15.419-.731-1.178-.333-2.1-.009-3.111 2.925-8.993 5.882-17.97 8.969-27.394l10.561 20.74c1.462-4.354 2.786-8.238 4.07-12.137C426.6 56.467 430.1 45.955 433.436 35.4c.528-1.649 1.243-2.088 2.867-2.031 3.445.114 6.9.146 10.333-.016 1.731-.081 2.356.552 2.827 2.1 4.135 13.786 8.351 27.556 12.544 41.318.2.65.438 1.292.78 2.307 3.1-7.173 6.061-14.038 9.01-20.911 3.3-7.669 6.6-15.338 9.854-23.031.471-1.1.878-1.8 2.323-1.779 5.687.1 11.373.041 17.474.041-1.747 4.338-3.412 8.473-5.086 12.592q-11.613 28.673-23.234 57.346a6.652 6.652.0 00-.252.975H453.729q-3.509-11.442-7.035-22.893c-1.812-5.849-3.664-11.682-5.687-18.108l-13.665 41z" transform="translate(-350.207 -33.337)" fill="url(#linear-gradient-4)"/><path id="Trazado_1274" data-name="Trazado 1274" d="M393.164 104.327c0-22.755.024-45.51-.049-68.265-.008-2.015.292-2.754 2.575-2.713 9.131.154 18.262-.008 27.385.089 7.58.081 14.452 1.974 19.546 8.108a3.63 3.63.0 01.78 3.908q-5.227 15.634-10.26 31.326a3.074 3.074.0 01-2.729 2.51c-5.565.991-11.162.634-16.744.634-1.827.0-2.51.292-2.469 2.34.154 7.352.065 14.712.073 22.064zm18.092-47.793v8.205c0 .78-.105 1.576 1.113 1.519 3.428-.171 6.881.333 10.285-.471 4.232-1.007 6.531-3.883 6.71-8.5.179-4.988-1.9-8.254-6.1-9.5-3.363-1-6.84-.39-10.252-.617-1.592-.114-1.828.585-1.779 1.925C411.321 51.578 411.256 54.056 411.256 56.534z" transform="translate(-393.115 -33.347)" fill="url(#linear-gradient-4)"/><path id="Trazado_1275" data-name="Trazado 1275" d="M440.533 104.176c-1.373-3.672-2.811-7.32-4.079-11.016a2.249 2.249.0 00-2.575-1.779c-7.75.081-15.5.041-23.592.041 1.73-4.427 3.363-8.611 5.013-12.787.414-1.056 1.373-.837 2.209-.837 4.054-.008 8.1-.041 12.153.016 1.495.024 1.746-.366 1.219-1.779-2.145-5.752-4.16-11.56-6.272-17.328a4.6 4.6.0 01.024-3.623c2.876-7 5.638-14.054 8.7-21.715 2.039 5.362 3.867 10.139 5.679 14.924q10.333 27.272 20.675 54.552a5.449 5.449.0 00.5.821c-.041 1.137-.9.471-1.292.479C452.775 104.192 446.658 104.176 440.533 104.176z" transform="translate(-270.784 -33.196)" fill="url(#linear-gradient-7)"/></g><g id="Grupo_1385" data-name="Grupo 1385" transform="translate(353.868 54.363)"><g id="Grupo_1371" data-name="Grupo 1371" transform="translate(2.323 2.323)"><g id="Grupo_1370" data-name="Grupo 1370"><g id="Grupo_1369" data-name="Grupo 1369"><g id="Grupo_1368" data-name="Grupo 1368"><path id="Trazado_1276" data-name="Trazado 1276" d="M443.885 33.633h91.353c11.69.0 21.252 10.464 21.252 23.242V255.634c0 12.787-9.561 23.242-21.252 23.242H443.885c-11.682.0-21.244-10.455-21.244-23.242V56.875C422.641 44.1 432.2 33.633 443.885 33.633z" transform="translate(-422.641 -33.633)" fill="#fff"/></g></g></g></g><g id="Grupo_1375" data-name="Grupo 1375" transform="translate(56.461 214.096)"><g id="Grupo_1374" data-name="Grupo 1374"><g id="Grupo_1373" data-name="Grupo 1373"><g id="Grupo_1372" data-name="Grupo 1372"><circle id="Elipse_44" data-name="Elipse 44" cx="11.623" cy="11.623" r="11.623" transform="translate(1.161 1.16)" fill="#fff"/><path id="Trazado_1277" data-name="Trazado 1277" d="M442.092 85.267a12.783 12.783.0 1112.779-12.779A12.8 12.8.0 01442.092 85.267zm0-23.242a10.46 10.46.0 1010.455 10.464A10.478 10.478.0 00442.092 62.024z" transform="translate(-429.305 -59.701)" fill="url(#linear-gradient-8)"/></g></g></g></g><g id="Grupo_1379" data-name="Grupo 1379" transform="translate(2.323 2.323)"><g id="Grupo_1378" data-name="Grupo 1378"><g id="Grupo_1377" data-name="Grupo 1377"><g id="Grupo_1376" data-name="Grupo 1376"><path id="Trazado_1278" data-name="Trazado 1278" d="M535.238 33.633H443.885c-11.682.0-21.244 10.464-21.244 23.242V234.016H556.49V56.875C556.49 44.1 546.928 33.633 535.238 33.633z" transform="translate(-422.641 -33.633)" fill="#fff"/></g></g></g></g><g id="Grupo_1384" data-name="Grupo 1384" transform="translate(48.321 19.294)"><g id="Grupo_1383" data-name="Grupo 1383"><g id="Grupo_1382" data-name="Grupo 1382"><g id="Grupo_1381" data-name="Grupo 1381"><g id="Grupo_1380" data-name="Grupo 1380"><path id="Trazado_1279" data-name="Trazado 1279" d="M460.99 49.814H435.424a6.974 6.974.0 110-13.949H460.99a6.974 6.974.0 110 13.949z" transform="translate(-427.284 -34.703)" fill="#fff"/><path id="Trazado_1280" data-name="Trazado 1280" d="M462.009 51.994H436.443a8.136 8.136.0 110-16.272h25.566a8.136 8.136.0 110 16.272zM436.443 38.045a5.813 5.813.0 100 11.625h25.566a5.813 5.813.0 100-11.625z" transform="translate(-428.303 -35.722)" fill="url(#linear-gradient-9)"/></g></g></g></g></g><path id="Trazado_1281" data-name="Trazado 1281" d="M537.275 33.347H445.922c-13 0-23.567 11.471-23.567 25.566V257.671c0 14.1 10.569 25.574 23.567 25.574h91.353c13 0 23.576-11.471 23.576-25.574V58.913c0-14.095-10.578-25.566-23.576-25.566zm-91.353 4.647h91.353c10.439.0 18.921 9.391 18.921 20.919V233.56H427V58.913C427 47.385 435.491 37.994 445.922 37.994zm91.353 240.6H445.922c-10.432.0-18.921-9.383-18.921-20.919v-19.46H556.2v19.457C556.2 269.207 547.714 278.59 537.275 278.59z" transform="translate(-422.355 -33.347)" fill="url(#linear-gradient-4)"/></g><g id="Grupo_1386" data-name="Grupo 1386" transform="translate(384.82 155.056)"><path id="Trazado_1282" data-name="Trazado 1282" d="M432.382 73.318c-1.21-2.047-2.4-4.119-3.656-6.142a1.318 1.318.0 010-1.243c1.17-3.583 2.348-7.165 3.575-10.918l4.208 8.27c.585-1.739 1.113-3.282 1.625-4.842 1.373-4.192 2.771-8.384 4.1-12.592a.959.959.0 011.138-.8c1.373.041 2.754.057 4.127-.008.683-.032.934.219 1.121.837 1.65 5.5 3.331 10.983 5 16.467.081.26.179.52.317.918 1.227-2.86 2.413-5.589 3.591-8.327 1.316-3.063 2.632-6.117 3.924-9.18.187-.447.35-.723.926-.715 2.267.041 4.533.016 6.962.016-.7 1.73-1.357 3.38-2.023 5.021q-4.63 11.43-9.261 22.852a3.448 3.448.0 00-.1.39h-7.636c-.934-3.038-1.86-6.085-2.8-9.123-.723-2.332-1.463-4.655-2.267-7.214l-5.443 16.337z" transform="translate(-409.066 -45.03)" fill="url(#linear-gradient-11)"/><path id="Trazado_1283" data-name="Trazado 1283" d="M426.181 73.323q0-13.6-.016-27.207c-.008-.8.113-1.1 1.023-1.08 3.64.065 7.279.0 10.919.041 3.014.032 5.76.78 7.783 3.225a1.441 1.441.0 01.317 1.56q-2.083 6.227-4.094 12.486a1.218 1.218.0 01-1.089 1 37.377 37.377.0 01-6.67.252c-.731.0-1 .122-.983.934.057 2.925.024 5.857.024 8.79zM433.4 54.28v3.266c0 .309-.041.626.439.609a22.372 22.372.0 004.1-.195 3.276 3.276.0 002.672-3.38c.073-1.99-.755-3.29-2.429-3.786a18.623 18.623.0 00-4.087-.252c-.634-.041-.731.236-.706.772C433.42 52.3 433.4 53.289 433.4 54.28z" transform="translate(-426.165 -45.035)" fill="url(#linear-gradient-12)"/><path id="Trazado_1284" data-name="Trazado 1284" d="M445.064 73.265c-.544-1.462-1.121-2.916-1.625-4.387a.889.889.0 00-1.024-.707c-3.087.033-6.182.008-9.407.008.691-1.763 1.341-3.428 2-5.094.171-.422.552-.333.886-.333 1.608.0 3.225-.016 4.842.008.593.008.69-.146.488-.707-.862-2.3-1.657-4.606-2.5-6.905a1.863 1.863.0 01.008-1.446c1.145-2.795 2.25-5.6 3.469-8.66.813 2.145 1.544 4.046 2.267 5.955L452.7 72.737a1.545 1.545.0 00.2.325c-.016.455-.366.187-.52.195C449.946 73.273 447.509 73.265 445.064 73.265z" transform="translate(-377.416 -44.977)" fill="url(#linear-gradient-13)"/></g></g></g></g></svg>